<mxfile host="app.diagrams.net" modified="2023-02-21T10:48:58.332Z" agent="5.0 (Windows NT 10.0; Win64; x64) AppleWebKit/537.36 (KHTML, like Gecko) Chrome/110.0.0.0 Safari/537.36" etag="paDBPLc_VXop9e0pKNyw" version="20.8.20" type="github">
  <diagram id="C5RBs43oDa-KdzZeNtuy" name="Page-1">
    <mxGraphModel dx="1050" dy="541" grid="1" gridSize="10" guides="1" tooltips="1" connect="1" arrows="1" fold="1" page="1" pageScale="1" pageWidth="827" pageHeight="1169" math="0" shadow="0">
      <root>
        <mxCell id="WIyWlLk6GJQsqaUBKTNV-0" />
        <mxCell id="WIyWlLk6GJQsqaUBKTNV-1" parent="WIyWlLk6GJQsqaUBKTNV-0" />
        <mxCell id="slGiqVwtNZEG0ABO0By9-7" value="" style="edgeStyle=orthogonalEdgeStyle;rounded=0;orthogonalLoop=1;jettySize=auto;html=1;" edge="1" parent="WIyWlLk6GJQsqaUBKTNV-1" source="slGiqVwtNZEG0ABO0By9-3" target="slGiqVwtNZEG0ABO0By9-4">
          <mxGeometry relative="1" as="geometry" />
        </mxCell>
        <mxCell id="slGiqVwtNZEG0ABO0By9-3" value="Start" style="rounded=1;whiteSpace=wrap;html=1;" vertex="1" parent="WIyWlLk6GJQsqaUBKTNV-1">
          <mxGeometry x="330" y="30" width="120" height="60" as="geometry" />
        </mxCell>
        <mxCell id="slGiqVwtNZEG0ABO0By9-8" value="" style="edgeStyle=orthogonalEdgeStyle;rounded=0;orthogonalLoop=1;jettySize=auto;html=1;" edge="1" parent="WIyWlLk6GJQsqaUBKTNV-1" source="slGiqVwtNZEG0ABO0By9-4" target="slGiqVwtNZEG0ABO0By9-5">
          <mxGeometry relative="1" as="geometry" />
        </mxCell>
        <mxCell id="slGiqVwtNZEG0ABO0By9-4" value="Generate random word" style="rounded=1;whiteSpace=wrap;html=1;" vertex="1" parent="WIyWlLk6GJQsqaUBKTNV-1">
          <mxGeometry x="330" y="120" width="120" height="60" as="geometry" />
        </mxCell>
        <mxCell id="slGiqVwtNZEG0ABO0By9-9" value="" style="edgeStyle=orthogonalEdgeStyle;rounded=0;orthogonalLoop=1;jettySize=auto;html=1;" edge="1" parent="WIyWlLk6GJQsqaUBKTNV-1" source="slGiqVwtNZEG0ABO0By9-5" target="slGiqVwtNZEG0ABO0By9-6">
          <mxGeometry relative="1" as="geometry" />
        </mxCell>
        <mxCell id="slGiqVwtNZEG0ABO0By9-5" value="Generate same number of blanks as the word" style="rounded=1;whiteSpace=wrap;html=1;" vertex="1" parent="WIyWlLk6GJQsqaUBKTNV-1">
          <mxGeometry x="330" y="210" width="120" height="60" as="geometry" />
        </mxCell>
        <mxCell id="slGiqVwtNZEG0ABO0By9-11" value="" style="edgeStyle=orthogonalEdgeStyle;rounded=0;orthogonalLoop=1;jettySize=auto;html=1;" edge="1" parent="WIyWlLk6GJQsqaUBKTNV-1" source="slGiqVwtNZEG0ABO0By9-6" target="slGiqVwtNZEG0ABO0By9-10">
          <mxGeometry relative="1" as="geometry" />
        </mxCell>
        <mxCell id="slGiqVwtNZEG0ABO0By9-6" value="Ask the user to guess the letter" style="rounded=1;whiteSpace=wrap;html=1;" vertex="1" parent="WIyWlLk6GJQsqaUBKTNV-1">
          <mxGeometry x="330" y="300" width="120" height="60" as="geometry" />
        </mxCell>
        <mxCell id="slGiqVwtNZEG0ABO0By9-14" style="edgeStyle=orthogonalEdgeStyle;rounded=0;orthogonalLoop=1;jettySize=auto;html=1;" edge="1" parent="WIyWlLk6GJQsqaUBKTNV-1" source="slGiqVwtNZEG0ABO0By9-10" target="slGiqVwtNZEG0ABO0By9-12">
          <mxGeometry relative="1" as="geometry" />
        </mxCell>
        <mxCell id="slGiqVwtNZEG0ABO0By9-17" value="Yes" style="edgeLabel;html=1;align=center;verticalAlign=middle;resizable=0;points=[];" vertex="1" connectable="0" parent="slGiqVwtNZEG0ABO0By9-14">
          <mxGeometry x="0.3865" y="1" relative="1" as="geometry">
            <mxPoint as="offset" />
          </mxGeometry>
        </mxCell>
        <mxCell id="slGiqVwtNZEG0ABO0By9-15" style="edgeStyle=orthogonalEdgeStyle;rounded=0;orthogonalLoop=1;jettySize=auto;html=1;" edge="1" parent="WIyWlLk6GJQsqaUBKTNV-1" source="slGiqVwtNZEG0ABO0By9-10" target="slGiqVwtNZEG0ABO0By9-13">
          <mxGeometry relative="1" as="geometry" />
        </mxCell>
        <mxCell id="slGiqVwtNZEG0ABO0By9-16" value="No" style="edgeLabel;html=1;align=center;verticalAlign=middle;resizable=0;points=[];" vertex="1" connectable="0" parent="slGiqVwtNZEG0ABO0By9-15">
          <mxGeometry x="0.2662" y="-1" relative="1" as="geometry">
            <mxPoint x="1" y="11" as="offset" />
          </mxGeometry>
        </mxCell>
        <mxCell id="slGiqVwtNZEG0ABO0By9-10" value="Is the guessed letter in the word?" style="rhombus;whiteSpace=wrap;html=1;" vertex="1" parent="WIyWlLk6GJQsqaUBKTNV-1">
          <mxGeometry x="306.25" y="400" width="167.5" height="100" as="geometry" />
        </mxCell>
        <mxCell id="slGiqVwtNZEG0ABO0By9-25" value="" style="edgeStyle=orthogonalEdgeStyle;rounded=0;orthogonalLoop=1;jettySize=auto;html=1;" edge="1" parent="WIyWlLk6GJQsqaUBKTNV-1" source="slGiqVwtNZEG0ABO0By9-12" target="slGiqVwtNZEG0ABO0By9-22">
          <mxGeometry relative="1" as="geometry" />
        </mxCell>
        <mxCell id="slGiqVwtNZEG0ABO0By9-12" value="Replace the blank with the letter" style="rounded=1;whiteSpace=wrap;html=1;" vertex="1" parent="WIyWlLk6GJQsqaUBKTNV-1">
          <mxGeometry x="150" y="520" width="120" height="60" as="geometry" />
        </mxCell>
        <mxCell id="slGiqVwtNZEG0ABO0By9-24" value="" style="edgeStyle=orthogonalEdgeStyle;rounded=0;orthogonalLoop=1;jettySize=auto;html=1;" edge="1" parent="WIyWlLk6GJQsqaUBKTNV-1" source="slGiqVwtNZEG0ABO0By9-13" target="slGiqVwtNZEG0ABO0By9-23">
          <mxGeometry relative="1" as="geometry" />
        </mxCell>
        <mxCell id="slGiqVwtNZEG0ABO0By9-13" value="Loose a life" style="rounded=1;whiteSpace=wrap;html=1;" vertex="1" parent="WIyWlLk6GJQsqaUBKTNV-1">
          <mxGeometry x="510" y="520" width="120" height="60" as="geometry" />
        </mxCell>
        <mxCell id="slGiqVwtNZEG0ABO0By9-19" value="" style="shape=umlActor;verticalLabelPosition=bottom;verticalAlign=top;html=1;outlineConnect=0;" vertex="1" parent="WIyWlLk6GJQsqaUBKTNV-1">
          <mxGeometry x="660" y="520" width="30" height="60" as="geometry" />
        </mxCell>
        <mxCell id="slGiqVwtNZEG0ABO0By9-26" style="edgeStyle=orthogonalEdgeStyle;rounded=0;orthogonalLoop=1;jettySize=auto;html=1;entryX=0;entryY=0.25;entryDx=0;entryDy=0;" edge="1" parent="WIyWlLk6GJQsqaUBKTNV-1" source="slGiqVwtNZEG0ABO0By9-22" target="slGiqVwtNZEG0ABO0By9-6">
          <mxGeometry relative="1" as="geometry">
            <Array as="points">
              <mxPoint x="100" y="660" />
              <mxPoint x="100" y="315" />
            </Array>
          </mxGeometry>
        </mxCell>
        <mxCell id="slGiqVwtNZEG0ABO0By9-29" value="No" style="edgeLabel;html=1;align=center;verticalAlign=middle;resizable=0;points=[];" vertex="1" connectable="0" parent="slGiqVwtNZEG0ABO0By9-26">
          <mxGeometry x="-0.2298" relative="1" as="geometry">
            <mxPoint as="offset" />
          </mxGeometry>
        </mxCell>
        <mxCell id="slGiqVwtNZEG0ABO0By9-34" style="edgeStyle=orthogonalEdgeStyle;rounded=0;orthogonalLoop=1;jettySize=auto;html=1;entryX=0.5;entryY=0;entryDx=0;entryDy=0;" edge="1" parent="WIyWlLk6GJQsqaUBKTNV-1" source="slGiqVwtNZEG0ABO0By9-22" target="slGiqVwtNZEG0ABO0By9-30">
          <mxGeometry relative="1" as="geometry" />
        </mxCell>
        <mxCell id="slGiqVwtNZEG0ABO0By9-35" value="Yes" style="edgeLabel;html=1;align=center;verticalAlign=middle;resizable=0;points=[];" vertex="1" connectable="0" parent="slGiqVwtNZEG0ABO0By9-34">
          <mxGeometry x="-0.5922" relative="1" as="geometry">
            <mxPoint as="offset" />
          </mxGeometry>
        </mxCell>
        <mxCell id="slGiqVwtNZEG0ABO0By9-22" value="Have they guessed the word?" style="rhombus;whiteSpace=wrap;html=1;rounded=1;" vertex="1" parent="WIyWlLk6GJQsqaUBKTNV-1">
          <mxGeometry x="155" y="620" width="110" height="80" as="geometry" />
        </mxCell>
        <mxCell id="slGiqVwtNZEG0ABO0By9-27" style="edgeStyle=orthogonalEdgeStyle;rounded=0;orthogonalLoop=1;jettySize=auto;html=1;entryX=1;entryY=0.5;entryDx=0;entryDy=0;" edge="1" parent="WIyWlLk6GJQsqaUBKTNV-1" source="slGiqVwtNZEG0ABO0By9-23" target="slGiqVwtNZEG0ABO0By9-6">
          <mxGeometry relative="1" as="geometry">
            <Array as="points">
              <mxPoint x="710" y="655" />
              <mxPoint x="710" y="330" />
            </Array>
          </mxGeometry>
        </mxCell>
        <mxCell id="slGiqVwtNZEG0ABO0By9-28" value="No" style="edgeLabel;html=1;align=center;verticalAlign=middle;resizable=0;points=[];" vertex="1" connectable="0" parent="slGiqVwtNZEG0ABO0By9-27">
          <mxGeometry x="-0.1863" relative="1" as="geometry">
            <mxPoint as="offset" />
          </mxGeometry>
        </mxCell>
        <mxCell id="slGiqVwtNZEG0ABO0By9-32" style="edgeStyle=orthogonalEdgeStyle;rounded=0;orthogonalLoop=1;jettySize=auto;html=1;entryX=0.5;entryY=0;entryDx=0;entryDy=0;" edge="1" parent="WIyWlLk6GJQsqaUBKTNV-1" source="slGiqVwtNZEG0ABO0By9-23" target="slGiqVwtNZEG0ABO0By9-30">
          <mxGeometry relative="1" as="geometry" />
        </mxCell>
        <mxCell id="slGiqVwtNZEG0ABO0By9-36" value="Yes" style="edgeLabel;html=1;align=center;verticalAlign=middle;resizable=0;points=[];" vertex="1" connectable="0" parent="slGiqVwtNZEG0ABO0By9-32">
          <mxGeometry x="-0.7444" y="3" relative="1" as="geometry">
            <mxPoint as="offset" />
          </mxGeometry>
        </mxCell>
        <mxCell id="slGiqVwtNZEG0ABO0By9-23" value="Have they run out of lives?" style="rhombus;whiteSpace=wrap;html=1;rounded=1;" vertex="1" parent="WIyWlLk6GJQsqaUBKTNV-1">
          <mxGeometry x="515" y="615" width="110" height="90" as="geometry" />
        </mxCell>
        <mxCell id="slGiqVwtNZEG0ABO0By9-30" value="GAME OVER" style="rounded=1;whiteSpace=wrap;html=1;" vertex="1" parent="WIyWlLk6GJQsqaUBKTNV-1">
          <mxGeometry x="330" y="740" width="120" height="60" as="geometry" />
        </mxCell>
      </root>
    </mxGraphModel>
  </diagram>
</mxfile>
